<svg xmlns="http://www.w3.org/2000/svg" xmlns:xlink="http://www.w3.org/1999/xlink" width="200" height="30" viewBox="0 0 200 30">
    <defs>
        <linearGradient id="a" x1="50%" x2="50%" y1="0%" y2="100%">
            <stop offset="0%" stop-color="#66BE68"/>
            <stop offset="100%" stop-color="#01AAE1"/>
        </linearGradient>
        <path id="b" d="M17.153 15.393l1.594 1.678-2.15 2.263-1.658-1.746A8.759 8.759 0 0 1 9.88 19.2h-.76C4.083 19.2 0 14.902 0 9.6S4.083 0 9.12 0h.76C14.917 0 19 4.298 19 9.6a9.89 9.89 0 0 1-1.847 5.793zm-2.164-2.277c.614-.993.971-2.179.971-3.452v-.128c0-3.5-2.695-6.336-6.02-6.336h-.88c-3.325 0-6.02 2.837-6.02 6.336v.128c0 3.5 2.695 6.336 6.02 6.336h.88c1.012 0 1.964-.262 2.8-.726l-1.72-1.811 2.15-2.263 1.82 1.916z"/>
        <path id="d" d="M9.135 0h.73c4.843 0 8.77 4.477 8.77 10s-3.927 10-8.77 10h-.73c-4.843 0-8.77-4.477-8.77-10S4.292 0 9.135 0zm-.059 3.333c-3.196 0-5.788 2.955-5.788 6.6v.134c0 3.645 2.592 6.6 5.788 6.6h.848c3.196 0 5.788-2.955 5.788-6.6v-.134c0-3.645-2.592-6.6-5.788-6.6h-.848z"/>
        <path id="f" d="M11.66 15.455H3.378V20H0V0h11.822C15.786 0 19 3.46 19 7.727c0 3.019-1.608 5.633-3.952 6.905L17.733 20h-3.8l-2.273-4.545zM3.378 3.182v9.09h7.6c2.332 0 4.222-2.034 4.222-4.545 0-2.51-1.89-4.545-4.222-4.545h-7.6z"/>
        <path id="h" d="M3.786 0v10.87c0 3.121 2.449 5.652 5.47 5.652h1.261c3.02 0 5.47-2.53 5.47-5.652V0h3.365v10.87c0 5.042-3.955 9.13-8.835 9.13H9.255C4.376 20 .421 15.912.421 10.87V0h3.365z"/>
        <path id="j" d="M23.6 0v19.565h-3.2V4.447l-6.8 15.118h-3.2L3.6 4.447v15.118H.4V0h4.4L12 16.008 19.2 0z"/>
    </defs>
    <g fill="none" fill-rule="evenodd">
        <path fill="url(#a)" fill-rule="nonzero" d="M12.474 0h.007c3.978 2.383 7.95 4.779 11.926 7.166.197.12.398.234.593.36v14.986c-.074-.011-.134-.06-.197-.097-1.274-.769-2.548-1.54-3.823-2.308l-.017-.023c.007-3.363.002-6.726.003-10.09-.26-.19-.556-.338-.83-.513l-7.252-4.358c-.103-.056-.196-.133-.306-.172-2.774 1.657-5.541 3.327-8.31 4.993l-.07.053c.001 3.346 0 6.693.004 10.04 2.265 1.363 4.534 2.72 6.8 4.08.537.314 1.061.653 1.606.95.001 1.621.003 3.243-.002 4.864l-.1.069c-3.583-2.151-7.168-4.3-10.751-6.45C1.17 23.19.568 22.862 0 22.477c.009-3.23.004-6.46.006-9.689 0-1.755-.01-3.51 0-5.265l.032-.028C4.138 5.03 8.24 2.57 12.338.103c.034-.045.158-.032.136-.103zm2.647 19.215c.054-.004.092.042.134.067 2.573 1.733 5.151 3.457 7.721 5.192-1.34.918-2.694 1.813-4.04 2.723-1.273.85-2.535 1.717-3.814 2.555-.008-3.512.004-7.024 0-10.537z"/>
        <g transform="translate(39 5)">
            <mask id="c" fill="#fff">
                <use xlink:href="#b"/>
            </mask>
            <path fill="#FFF" d="M-1.9 21.334h22.8V-2H-1.9z" mask="url(#c)"/>
        </g>
        <g transform="translate(73 5)">
            <mask id="e" fill="#fff">
                <use xlink:href="#d"/>
            </mask>
            <path fill="#FFF" d="M-1.462 22.083h21.924V-2.083H-1.462z" mask="url(#e)"/>
        </g>
        <g transform="translate(107 5)">
            <mask id="g" fill="#fff">
                <use xlink:href="#f"/>
            </mask>
            <path fill="#FFF" d="M-2.192 22.308h23.384V-2.308H-2.192z" mask="url(#g)"/>
        </g>
        <g transform="translate(141 5)">
            <mask id="i" fill="#fff">
                <use xlink:href="#h"/>
            </mask>
            <path fill="#FFF" d="M-1.683 22.174h23.138V-2.174H-1.683z" mask="url(#i)"/>
        </g>
        <g transform="translate(176 5)">
            <mask id="k" fill="#fff">
                <use xlink:href="#j"/>
            </mask>
            <path fill="#FFF" d="M-1.6 21.74h27.2V-2.175H-1.6z" mask="url(#k)"/>
        </g>
    </g>
</svg>
