<svg xmlns="http://www.w3.org/2000/svg" width="15" height="26" viewBox="0 0 15 26">
    <defs>
        <linearGradient id="a" x1="100%" x2="0%" y1="50%" y2="50%">
            <stop offset="0%" stop-color="#66BE68"/>
            <stop offset="100%" stop-color="#01AAE1"/>
        </linearGradient>
    </defs>
    <g fill="none" fill-rule="nonzero">
        <path fill="#AEAEAE" d="M2.945 1.573a.387.387 0 0 1 .084-.008h8.285c.374.002.748-.003 1.122.003.077.017.158.008.236.02.161.029.321.065.475.119.566.214 1.032.656 1.223 1.195.073.2.114.409.115.62V22.2c.005.334-.088.668-.256.963a2.128 2.128 0 0 1-1.324.964c-.029.008-.058.014-.087.02-.035.01-.072.014-.109.02-.07.016-.142.014-.213.019-.178.023-.358.006-.537.011H4.427c-.503-.003-1.005.007-1.507-.005-.076-.019-.157-.002-.232-.026-.037-.004-.074-.007-.109-.018-.057-.012-.116-.023-.17-.043l-.05-.01a2.207 2.207 0 0 0-.08-.028 1.434 1.434 0 0 1-.15-.062 2.094 2.094 0 0 1-.933-.786 1.887 1.887 0 0 1-.29-1.04V3.56a1.886 1.886 0 0 1 .245-.943 2.081 2.081 0 0 1 .934-.84c.135-.065.28-.113.427-.148.029-.005.059-.01.086-.02.115-.022.23-.031.347-.036zm3.403.61c-.014.205-.005.41-.005.617.087-.002.173.018.26 0 .042.01.086.012.129 0l.04.01c.156-.026.318.002.473-.008.138-.002.276-.002.413 0 .04.014.083.002.124-.001.074-.008.147.02.219 0 .091.012.19.017.28-.002.053.029.113-.012.17.007.114 0 .23-.017.344.002.064 0 .13.009.193-.006l.085-.001c-.001-.207.003-.412-.002-.618H6.348zM1.576 21.693h12.24V4.091H1.575v17.603zm5.221.626l-.09.014a.523.523 0 0 0-.352.344c-.022.084-.011.172-.013.258.002.087-.008.174.01.26.04.16.169.3.337.355.07.016.141.027.213.028H8.54c.156-.004.32-.058.415-.177a.437.437 0 0 0 .12-.308c-.004-.127.004-.254-.005-.38a.514.514 0 0 0-.354-.38.735.735 0 0 1-.11-.02c-.416-.004-.833 0-1.25-.001-.186.005-.373-.01-.558.007z"/>
        <path fill="url(#a)" d="M1.455.67A3.355 3.355 0 0 1 3.851.022a3.38 3.38 0 0 1 2.031.98c.246.26.471.546.634.871.217.422.369.884.417 1.362a3.72 3.72 0 0 1-.071 1.179c-.09.385-.243.753-.436 1.094l-2.56 4.605c-.132.232-.255.47-.393.699-1-1.809-2.009-3.612-3.011-5.42a3.89 3.89 0 0 1-.43-1.29 3.662 3.662 0 0 1 .128-1.56c.108-.34.255-.67.448-.967.233-.346.512-.663.847-.903zm1.965.874a2.026 2.026 0 0 0-.753.177 1.95 1.95 0 0 0-.836.734 1.948 1.948 0 0 0 .07 2.14c.258.364.644.639 1.079.746a1.914 1.914 0 0 0 2.043-.71c.195-.252.312-.559.362-.872a1.915 1.915 0 0 0-.369-1.439 1.946 1.946 0 0 0-1.596-.776z" transform="translate(4.074 7.37)"/>
    </g>
</svg>
