<svg xmlns="http://www.w3.org/2000/svg" width="22" height="27" viewBox="0 0 22 27">
    <defs>
        <linearGradient id="a" x1="100%" x2="0%" y1="50%" y2="50%">
            <stop offset="0%" stop-color="#66BE68"/>
            <stop offset="100%" stop-color="#01AAE1"/>
        </linearGradient>
    </defs>
    <g fill="none" fill-rule="nonzero">
        <path fill="#AEAEAE" d="M6.391 2.253a5.886 5.886 0 0 1 3.601-.708c1.327.156 2.59.79 3.524 1.75a5.993 5.993 0 0 1 1.701 3.731c.17 1.952-.708 3.944-2.232 5.16 2.01.114 3.928 1.326 4.863 3.124.127.298.003.685-.288.834-.308.176-.749.06-.903-.269a4.73 4.73 0 0 0-3.238-2.315c-.64-.12-1.295-.062-1.942-.075H5.91a4.6 4.6 0 0 0-2.348.678c-1.085.665-1.892 1.786-2.14 3.044-.071.35-.102.71-.097 1.068.006 1.066-.004 2.132.005 3.197 3.32.003 6.64-.003 9.959.003.385-.003.7.398.627.774a.668.668 0 0 1-.697.556c-3.517-.001-7.034.003-10.551-.002A.665.665 0 0 1 0 22.115c0-1.344-.002-2.688.002-4.032a5.955 5.955 0 0 1 1.686-4.104 5.933 5.933 0 0 1 3.874-1.794A6.112 6.112 0 0 1 3.56 9.188a5.973 5.973 0 0 1 .23-4.032A6.012 6.012 0 0 1 6.39 2.253zm2.008.663c-1.604.3-2.998 1.518-3.51 3.077a4.644 4.644 0 0 0 .261 3.619 4.682 4.682 0 0 0 2.053 2.044 4.589 4.589 0 0 0 5.18-.714 4.652 4.652 0 0 0 1.036-5.533 4.687 4.687 0 0 0-2.072-2.081 4.596 4.596 0 0 0-2.948-.412z"/>
        <path fill="url(#a)" d="M16.736 16.479c.21-.354.76-.42 1.039-.112.317.32.157.808.198 1.208.417.096.816.262 1.172.5.276-.235.48-.581.83-.71.505-.167 1.027.44.782.916-.173.287-.455.484-.674.733.236.358.403.758.5 1.175.275.003.55-.014.826.006a.675.675 0 0 1 .578.704.678.678 0 0 1-.637.627c-.256.01-.512-.003-.767.002a3.782 3.782 0 0 1-.499 1.177c.227.26.537.46.692.774.204.495-.353 1.058-.85.857-.32-.15-.516-.471-.784-.693a3.687 3.687 0 0 1-1.17.498c-.038.416.13.943-.244 1.249-.343.315-.951.122-1.07-.322-.063-.304-.01-.62-.027-.927a3.579 3.579 0 0 1-1.174-.5c-.25.222-.45.51-.742.679-.486.244-1.092-.311-.896-.818.142-.332.47-.532.7-.8a3.6 3.6 0 0 1-.502-1.174c-.26-.005-.52.01-.778-.004-.347-.014-.649-.34-.624-.689a.67.67 0 0 1 .623-.644c.26-.012.52 0 .78-.005.1-.416.258-.82.5-1.174-.212-.236-.474-.428-.653-.69-.257-.427.133-1.017.62-.98.44.033.658.48.971.733.355-.244.76-.4 1.176-.503.027-.361-.086-.763.104-1.093zm.061 2.433a2.026 2.026 0 0 0-1.474 1.596c-.16.832.278 1.728 1.029 2.117.797.454 1.885.246 2.469-.459.56-.629.647-1.622.201-2.337-.433-.752-1.387-1.15-2.225-.917z" transform="translate(0 .5)"/>
    </g>
</svg>
