<svg xmlns="http://www.w3.org/2000/svg" width="25" height="20" viewBox="0 0 25 20">
    <path fill="#010101" fill-rule="nonzero" d="M1.643 0h21.69c.427.04.843.243 1.145.587.3.33.476.784.522 1.25v.292c-.038.558-.284 1.094-.68 1.438-.327.3-.754.444-1.174.432H1.854a1.715 1.715 0 0 1-1.402-.673C.19 3.006.045 2.588 0 2.16v-.304C.046 1.292.297.746.705.408A1.79 1.79 0 0 1 1.643 0zM.977 8.218c.27-.156.575-.225.877-.217 7.13-.002 14.26 0 21.39-.001.4.009.796.167 1.103.455.375.335.603.85.653 1.382v.31c-.036.392-.161.78-.384 1.09-.336.482-.877.774-1.424.762H1.806c-.383 0-.766-.13-1.074-.386-.419-.335-.68-.883-.732-1.453v-.304c.05-.686.425-1.331.977-1.638zm.03 7.983c.29-.166.622-.21.944-.2l21.245.001c.545-.01 1.086.278 1.42.761.22.306.342.687.384 1.075v.295c-.037.49-.228.968-.549 1.308a1.757 1.757 0 0 1-1.109.559H1.67a1.737 1.737 0 0 1-1.07-.505C.255 19.16.05 18.67 0 18.167v-.303c.044-.703.438-1.361 1.008-1.663z"/>
</svg>
