<svg xmlns="http://www.w3.org/2000/svg" width="24" height="26" viewBox="0 0 24 26">
    <g fill="none" fill-rule="evenodd">
        <path fill="#231F20" fill-rule="nonzero" d="M5.142 6.866c1-.616 2.18-.84 3.332-.866 1.37.028 2.8.34 3.894 1.242.997.812 1.583 2.04 1.897 3.29.468 1.805.497 3.691.868 5.516.157.736.378 1.474.79 2.103.255.41.655.704.866 1.145.25.456.285 1.035.066 1.51-.235.506-.7.843-1.174 1.088-1.332.638-2.814.805-4.258.958-.016.305-.03.614-.113.91a3.06 3.06 0 0 1-1.29 1.781 2.851 2.851 0 0 1-1.964.426 2.905 2.905 0 0 1-1.71-.91 3.072 3.072 0 0 1-.804-1.814c-.01-.135-.014-.27-.024-.406-.967-.083-1.933-.213-2.874-.46-.63-.177-1.265-.391-1.808-.778-.34-.244-.641-.575-.765-.992-.117-.39-.09-.823.083-1.191.138-.326.366-.597.603-.85.468-.515.751-1.176.944-1.845.342-1.225.437-2.502.606-3.76.18-1.46.42-2.958 1.125-4.258a4.84 4.84 0 0 1 1.71-1.839zm.664 1.773c-.684.525-1.064 1.358-1.282 2.188-.462 1.745-.498 3.57-.836 5.34-.23 1.21-.612 2.43-1.378 3.398-.138.183-.304.34-.444.522a.87.87 0 0 0 .221.142l.162.071c.144.064.292.116.442.16.874.26 1.779.385 2.682.481 1.616.156 3.241.18 4.862.103a22.839 22.839 0 0 0 3-.329c.56-.11 1.125-.231 1.648-.471.09-.04.174-.094.252-.155-.141-.184-.308-.345-.45-.528-.48-.613-.817-1.336-1.05-2.084-.43-1.378-.545-2.83-.728-4.257-.147-1.078-.285-2.177-.703-3.186a6.098 6.098 0 0 0-.075-.17c-.273-.612-.726-1.143-1.303-1.462-.718-.4-1.547-.515-2.352-.534-.927.023-1.909.18-2.668.771zm1.071 14.293a1.681 1.681 0 0 0 .721 1.398 1.55 1.55 0 0 0 1.87-.094c.379-.31.597-.803.597-1.3-.278-.012-.557.012-.836.013-.784.02-1.568-.006-2.352-.017z"/>
        <circle cx="16.5" cy="7.5" r="7.5" fill="#00E19C"/>
        <text fill="#FFF" font-family="Montserrat-Medium, Montserrat" font-size="9" font-weight="400" letter-spacing=".583">
            <tspan x="14" y="11">5</tspan>
        </text>
    </g>
</svg>
