<svg xmlns="http://www.w3.org/2000/svg" width="37" height="28" viewBox="0 0 37 28">
    <defs>
        <linearGradient id="a" x1="100%" x2="0%" y1="50%" y2="50%">
            <stop offset="0%" stop-color="#66BE68"/>
            <stop offset="100%" stop-color="#01AAE1"/>
        </linearGradient>
    </defs>
    <g fill="none" fill-rule="nonzero">
        <g fill="#AEAEAE">
            <path d="M7.015 1.54a4.778 4.778 0 0 1 2.576.45 4.59 4.59 0 0 1 2.37 2.734c.291.899.29 1.886.005 2.786a4.725 4.725 0 0 1-1.796 2.459 4.795 4.795 0 0 1-3.232.858 4.642 4.642 0 0 1-2.516-1.02 4.576 4.576 0 0 1-1.584-2.532A4.656 4.656 0 0 1 3.476 3.7a4.82 4.82 0 0 1 3.54-2.161zm-.247.71c-1.311.227-2.464 1.137-3.01 2.332A4.017 4.017 0 0 0 3.5 7.125a3.9 3.9 0 0 0 1.458 2.248 3.98 3.98 0 0 0 2.486.805 4.105 4.105 0 0 0 2.673-1.02c.54-.488.976-1.101 1.187-1.798a3.94 3.94 0 0 0 .007-2.451 3.923 3.923 0 0 0-1.992-2.306 4.108 4.108 0 0 0-2.551-.354z"/>
            <path d="M5.589 3.336c.315-.087.667-.047.95.118a1.251 1.251 0 0 1-.667 2.34c-.631-.007-1.183-.558-1.204-1.178-.046-.57.36-1.135.92-1.28zm.15.653a.608.608 0 0 0-.385.426c-.088.343.204.722.566.714.383.013.683-.408.556-.762a.588.588 0 0 0-.736-.378zM7.243 5.812l2.035-2.04c.161.154.32.312.482.466C8.383 5.62 7.01 7.006 5.623 8.377a26.935 26.935 0 0 0-.47-.46c.68-.716 1.395-1.401 2.09-2.105zM8.639 6.402c.41-.12.874-.009 1.191.274.497.435.551 1.26.106 1.75-.435.536-1.33.578-1.818.089-.437-.405-.519-1.12-.175-1.607.162-.244.414-.424.696-.506zm.154.654a.602.602 0 0 0-.39.517c-.025.332.28.65.622.618.398-.016.675-.497.479-.842-.116-.263-.442-.387-.711-.293zM30.192 12.428c.256-.055.519-.038.779-.046l.008.136c.507.002 1.015-.002 1.524.002.33.002.662.064.97.184.955.372 1.638 1.334 1.648 2.351.002 2.092 0 4.183.001 6.274 0 .335-.073.668-.201.977-.38.91-1.312 1.573-2.312 1.605-.545.01-1.09-.003-1.634.007-.01.42.05.858-.1 1.263-.242.74-.987 1.28-1.774 1.282-3.218.002-6.436 0-9.653.001a1.924 1.924 0 0 1-1.484-.66 1.85 1.85 0 0 1-.464-1.214V12.668c.273.007.546.019.818.045l.001 11.879c-.001.563.505 1.06 1.074 1.063 3.203.005 6.406.001 9.61.002.357.007.716-.163.922-.454.177-.23.221-.528.234-.808-.004-3.987.003-7.974-.004-11.96l.037-.007zm.784.928v1.318c.506.004 1.012-.003 1.518.003a.44.44 0 0 1 .443.429v6.22a.44.44 0 0 1-.43.429c-.51.007-1.02 0-1.53.003v1.32c.493.002.987 0 1.481.001.287.004.577-.048.831-.183.597-.278.993-.915.988-1.565v-5.826c-.002-.307.023-.622-.08-.917-.205-.697-.895-1.22-1.632-1.23-.53-.005-1.06-.002-1.589-.002zm0 2.158v5.406c.373.002.745 0 1.117.001v-5.408c-.372 0-.745-.001-1.117.001z"/>
            <path d="M28.26 13.623c.259-.098.572.098.567.377.002 3.214 0 6.428.001 9.643a.436.436 0 0 1-.33.455.42.42 0 0 1-.442-.182c-.095-.121-.071-.282-.074-.425.002-3.148 0-6.295 0-9.443a.442.442 0 0 1 .277-.425zM1.87 13.92c2.35-.008 4.702.02 7.053.022 1.525.01 3.05.024 4.576.023.137.005.296-.015.406.085.104.102.183.25.157.399-.335 3.514-.668 7.03-1.001 10.544-.027.233-.025.476-.125.694a1.23 1.23 0 0 1-1.166.744c-2.712-.016-5.424-.011-8.135-.04-.591-.009-1.108-.51-1.152-1.087-.314-3.65-.624-7.299-.937-10.949-.024-.193.115-.419.324-.435zm.45.722l.38 4.305.652.003c-.014-.313.022-.643.209-.906.224-.343.626-.56 1.039-.561.556-.006 1.111.006 1.667.003.127-.312.192-.662.426-.92.338-.38.911-.506 1.39-.337.722.26 1.443.523 2.164.784.522.15.88.671.87 1.201 0 .278-.125.531-.206.792l.44.003c.086-.931.162-1.863.248-2.794a.362.362 0 0 1 .374-.324c.196 0 .378.173.362.37-.079.917-.165 1.833-.245 2.75.259.002.519.002.778.002l.4-4.32c-3.649-.018-7.298-.032-10.947-.051zm4.901 2.446c-.087.129-.123.283-.174.428.397.02.778.239.991.57.183.265.217.595.199.907l1.895.009c.075-.204.155-.405.229-.608.103-.275-.059-.629-.35-.71l-2.166-.764c-.215-.08-.487-.021-.624.168zM4.13 18.506c-.087.142-.056.314-.059.472 1.136.004 2.272.006 3.408.012-.003-.163.03-.343-.067-.487a.517.517 0 0 0-.466-.263c-.782-.007-1.563-.008-2.345-.01a.517.517 0 0 0-.47.276zm-1.39 1.19c.089 1.038.19 2.076.275 3.115 1.63.024 3.262.004 4.892.032 1.53.005 3.058.008 4.587.016.091-1.048.2-2.094.283-3.143h-.754c-.057.657-.12 1.313-.177 1.97-.008.169-.162.307-.33.315-.207.022-.405-.164-.386-.37.049-.625.105-1.25.157-1.875l-.652-.003c-.14.369-.279.74-.417 1.11-.18.492-.714.82-1.239.792-.286-.023-.546-.153-.813-.248-.13.542-.664.936-1.224.93-.804-.022-1.609 0-2.413-.02-.626-.018-1.17-.568-1.184-1.184-.003-.478.004-.956.005-1.435l-.61-.002zm1.346.006l-.007 1.377a.52.52 0 0 0 .524.516c.796.004 1.592.012 2.387.01a.516.516 0 0 0 .5-.525c0-.455.006-.91.004-1.365-1.136 0-2.272-.01-3.408-.013zm4.17.014c-.004.307-.004.613-.006.92.224.077.444.164.67.235.239.08.54-.03.638-.266.112-.288.209-.582.317-.872-.54-.004-1.08 0-1.62-.017zm-5.177 3.848c.04.51.086 1.02.127 1.53-.026.28.182.577.484.571 2.389.021 4.778.014 7.167.04.323-.003.646.008.968-.002a.52.52 0 0 0 .471-.465c.05-.543.1-1.087.152-1.63-3.123-.01-6.245-.033-9.369-.044z"/>
        </g>
        <path fill="url(#a)" d="M4.19.988A4.176 4.176 0 0 1 7.468.063c1.268.182 2.425.983 3.019 2.096a3.47 3.47 0 0 1 2.34-.638 3.389 3.389 0 0 1 2.274 1.177c.107.109.173.253.283.356.602.147 1.156.504 1.497 1.015.41.581.527 1.346.316 2.02-.254.858-1.035 1.557-1.942 1.689-.255.008-.512-.008-.763.045-.166-.019-.346-.134-.505-.027a3.43 3.43 0 0 1-2.403.21 3.335 3.335 0 0 1-1.736-1.152c-.526.507-1.167.912-1.885 1.097a4.25 4.25 0 0 1-1.375.146c-.006.708.002 1.415-.01 2.122-.037.718-.718 1.324-1.451 1.294-.736.009-1.393-.622-1.409-1.34-.004-.764.005-1.528.002-2.292-.127.042-.249.108-.384.117-.433-.011-.866-.004-1.299-.006-.177.004-.34-.077-.497-.145C.835 7.52.287 6.88.11 6.135A2.485 2.485 0 0 1 .631 3.93 2.615 2.615 0 0 1 2.882 3 3.965 3.965 0 0 1 4.19.987zM6.195.91c-1.2.216-2.226 1.143-2.538 2.298-.07.185-.03.428-.211.555-.14.11-.327.074-.488.05-.639-.116-1.337.147-1.724.66a1.729 1.729 0 0 0-.32 1.486c.174.768.926 1.355 1.727 1.364.466.013.915-.187 1.258-.486.216-.2.65-.092.669.22.01 1.04-.004 2.08-.002 3.12 0 .31.286.588.605.576a.596.596 0 0 0 .61-.579c.003-.827.002-1.654.006-2.48-.013-.263.272-.481.53-.4 1.11.198 2.303-.217 3.04-1.053.158-.148.239-.412.488-.433.186-.045.373.066.451.23.315.57.864 1.012 1.498 1.199.695.22 1.473.098 2.092-.27.189-.112.4.01.589.056.705.185 1.494-.176 1.83-.804a1.595 1.595 0 0 0-.098-1.687c-.256-.375-.687-.615-1.139-.674-.171-.016-.286-.15-.357-.29a2.516 2.516 0 0 0-2.18-1.226 2.491 2.491 0 0 0-1.795.714c-.085.085-.175.18-.302.194-.19.041-.412-.049-.475-.238A3.24 3.24 0 0 0 8.4 1.232 3.38 3.38 0 0 0 6.195.91z" transform="translate(15.923 4.385)"/>
    </g>
</svg>
