<svg xmlns="http://www.w3.org/2000/svg" width="21" height="20" viewBox="0 0 21 20">
    <defs>
        <linearGradient id="a" x1="100%" x2="0%" y1="50%" y2="50%">
            <stop offset="0%" stop-color="#66BE68"/>
            <stop offset="100%" stop-color="#01AAE1"/>
        </linearGradient>
    </defs>
    <g fill="none" fill-rule="nonzero">
        <path fill="#010101" d="M7 .682c.002-.366.326-.69.682-.68C11.879 0 16.077.002 20.274 0a.69.69 0 0 1 .658.403c.102.229.057.486.064.73v18.17a.7.7 0 0 1-.533.675c-.19.034-.385.016-.577.018-4.085-.003-8.17.006-12.257-.004-.341-.016-.64-.342-.627-.695-.003-1.775-.002-3.55 0-5.325-.014-.376.316-.713.681-.701.365-.011.689.325.682.698v4.625c3.754-.002 7.51.004 11.264-.002.005-5.73.003-11.458.001-17.187-3.755-.004-7.51-.003-11.264-.001l.01 4.655a.708.708 0 0 1-.339.612c-.312.202-.764.07-.938-.261-.113-.198-.085-.433-.088-.652-.005-1.692-.007-3.385-.01-5.077z"/>
        <path fill="url(#a)" d="M10.627 4.199a.704.704 0 0 1 .99.01L16.59 9.28c.133.141.294.27.363.46a.736.736 0 0 1-.176.783l-5.145 5.25a.701.701 0 0 1-.932.087.732.732 0 0 1-.26-.792c.049-.182.187-.313.315-.44 1.28-1.302 2.554-2.61 3.836-3.91-4.6.006-9.2 0-13.8.002-.243.015-.5-.075-.644-.281a.735.735 0 0 1 .008-.892.697.697 0 0 1 .58-.27c4.616 0 9.23.002 13.846-.001-1.319-1.353-2.644-2.698-3.965-4.049a.738.738 0 0 1 .01-1.029z"/>
    </g>
</svg>
