<svg xmlns="http://www.w3.org/2000/svg" width="28" height="28" viewBox="0 0 28 28">
    <defs>
        <linearGradient id="a" x1="100%" x2="2.862%" y1="43.802%" y2="43.802%">
            <stop offset="0%" stop-color="#66BE68"/>
            <stop offset="100%" stop-color="#01AAE1"/>
        </linearGradient>
        <linearGradient id="b" x1="100%" x2="2.862%" y1="43.802%" y2="43.802%">
            <stop offset="0%" stop-color="#66BE68"/>
            <stop offset="40.294%" stop-color="#3DB699"/>
            <stop offset="100%" stop-color="#01AAE1"/>
        </linearGradient>
    </defs>
    <g fill="none" fill-rule="nonzero">
        <g fill="#FFF">
            <path d="M4.574 1.59a4.128 4.128 0 0 1 1.643.01c.218.046.435.1.64.185.819.306 1.505.874 1.917 1.568.241.415.398.87.432 1.336h5.163c.267.004.442.292.33.497-.16.3-.285.612-.404.925a11.846 11.846 0 0 0-.764 3.624 8.32 8.32 0 0 0 .16 2.078c.085.427.214.845.338 1.264.147.488.319.969.464 1.457.198.67.4 1.34.531 2.022.122.647.205 1.305.136 1.96a3.27 3.27 0 0 1-.254.99 2.75 2.75 0 0 1-.499.757 3.44 3.44 0 0 1-.68.547c-.269.162-.568.28-.87.385-.805.26-1.669.338-2.521.355v4.303h2.22c.105-.003.218.004.304.062.171.118.182.364.028.498a.418.418 0 0 1-.273.082H7.388a.454.454 0 0 1-.287-.074.316.316 0 0 1-.012-.484.414.414 0 0 1 .279-.084H9.57V21.55c-.88-.017-1.77-.094-2.606-.35a4.766 4.766 0 0 1-.918-.391 3.374 3.374 0 0 1-.686-.538 2.648 2.648 0 0 1-.477-.713c-.192-.426-.263-.886-.268-1.342-.007-.525.076-1.047.182-1.562.118-.572.293-1.134.464-1.696.109-.345.213-.69.34-1.03.228-.637.421-1.282.576-1.935.3-1.293.271-2.635.005-3.93a4.25 4.25 0 0 1-2.467-.12 3.538 3.538 0 0 1-1.29-.82 3.298 3.298 0 0 1-.537-.73 3.027 3.027 0 0 1-.155-2.575c.334-.873 1.092-1.61 2.042-1.991a4.12 4.12 0 0 1 .798-.237zM3.377 2.808a3.042 3.042 0 0 0-.606.595c-.172.216-.293.46-.381.712-.198.56-.19 1.177.022 1.733.169.463.485.888.921 1.187a2.977 2.977 0 0 0 1.58.547c.378.025.759-.016 1.124-.099a12.566 12.566 0 0 0-.788-2.248.36.36 0 0 1 .1-.443.389.389 0 0 1 .228-.07h2.9a2.626 2.626 0 0 0-.82-1.63c-.607-.6-1.528-.945-2.44-.902-.668.016-1.326.241-1.84.618zm2.77 2.556c.42.972.704 1.989.872 3.018.15.103.323.175.499.236.359.103.752.112 1.119.037.344-.07.64-.252.908-.446.28-.193.572-.377.901-.498a3.06 3.06 0 0 1 1.764-.063 3 3 0 0 1 .821.381c.108-.598.269-1.189.473-1.767.109-.307.247-.606.4-.898H6.146zm4.651 2.902c-.308.081-.57.253-.816.43-.277.19-.567.371-.893.49a2.804 2.804 0 0 1-.871.156c-.387.022-.767-.067-1.125-.188.078 1.067.022 2.147-.242 3.192-.087.331-.183.66-.283.987-.18.594-.394 1.18-.576 1.772-.19.617-.382 1.235-.498 1.867-.057.307-.111.616-.124.928-.013.29.004.583.051.872.087.461.308.92.706 1.24.216.17.456.32.72.426.321.13.657.23 1.002.295.726.144 1.474.177 2.217.173.252-.007.504-.003.755-.023.801-.048 1.618-.17 2.33-.516.243-.132.473-.288.662-.478.184-.198.346-.417.442-.66.145-.339.198-.703.21-1.064a5.975 5.975 0 0 0-.091-1.138c-.101-.64-.273-1.27-.454-1.895-.125-.43-.248-.862-.39-1.289-.144-.439-.285-.879-.423-1.32-.061-.184-.098-.373-.138-.561-.216-1.064-.222-2.154-.084-3.226-.106-.04-.185-.12-.28-.176a2.023 2.023 0 0 0-.913-.352 2.413 2.413 0 0 0-.894.058z"/>
            <path d="M5.31 2.641c.139-.017.296.002.4.08.066.058.119.131.12.21-.001.26-.002.521 0 .782.001.083-.054.16-.127.22-.173.121-.482.105-.626-.037-.055-.052-.097-.115-.097-.183v-.766c-.005-.144.138-.286.33-.306zM6.88 3.216c.215-.024.417.159.395.346-.007.081-.06.153-.123.209l-.585.515a.371.371 0 0 1-.343.065c-.174-.044-.298-.216-.252-.374.027-.096.112-.165.19-.232l.489-.432a.373.373 0 0 1 .229-.097zM3.679 3.258a.395.395 0 0 1 .345.075l.576.507c.071.063.13.146.126.238.004.18-.193.336-.395.32a.42.42 0 0 1-.232-.1l-.557-.49a.35.35 0 0 1-.125-.197c-.028-.153.096-.31.262-.353zM3.017 4.64a.566.566 0 0 1 .143-.015h.793c.096 0 .195.03.265.101a.418.418 0 0 1 .108.264.404.404 0 0 1-.225.386.48.48 0 0 1-.205.03c-.262-.001-.524.002-.786-.001a.334.334 0 0 1-.3-.18c-.125-.205-.026-.533.207-.586zM4.266 5.505a.403.403 0 0 1 .3.047c.096.062.167.165.16.273 0 .086-.055.164-.122.224l-.566.5a.395.395 0 0 1-.37.08c-.158-.043-.274-.19-.253-.337a.337.337 0 0 1 .122-.201l.557-.492a.39.39 0 0 1 .172-.094zM23.514 10.199a.386.386 0 0 1 .355.08c.163.168.29.362.379.568.135.301.213.623.215.947.003.348-.083.695-.234 1.016a2.703 2.703 0 0 1-1.73 1.388c-.372.108-.77.153-1.16.113a3.005 3.005 0 0 1-1.727-.729 2.565 2.565 0 0 1-.523-.67c-.096-.14-.163-.303-.147-.47.01-.057-.032-.11-.016-.168.02-.107.113-.188.219-.234l4.238-1.79c.043-.018.085-.038.13-.051zm-3.836 2.295c.13.287.346.54.61.742.299.217.67.352 1.05.401.71.093 1.458-.172 1.904-.665.162-.18.296-.382.37-.602.131-.352.137-.738.014-1.092a1.18 1.18 0 0 0-.2-.387c-1.249.534-2.498 1.07-3.748 1.603z"/>
            <path d="M22.588 11.598c.1-.02.2.01.297.026.1.02.204.03.303.058.16.044.259.214.245.37a.347.347 0 0 1-.291.314c-.176.027-.347-.035-.52-.057a.375.375 0 0 1-.314-.259c-.07-.191.064-.433.28-.452zM21.883 12.202a.442.442 0 0 1 .393.066c.078.054.097.142.14.216.05.095.107.199.075.306-.025.123-.147.214-.282.247-.116.014-.247-.006-.33-.083-.074-.056-.103-.14-.142-.215-.039-.079-.09-.158-.087-.247 0-.125.091-.25.233-.29zM20.99 12.354c.106-.02.232-.016.315.053a.323.323 0 0 1 .108.286c-.009.095-.08.17-.126.251-.059.082-.093.18-.177.244a.387.387 0 0 1-.346.063c-.104-.053-.205-.135-.223-.245a.277.277 0 0 1 .041-.215l.182-.29a.334.334 0 0 1 .226-.147z"/>
        </g>
        <path fill="url(#a)" d="M8.75.049c.094-.054.209-.044.315-.045L17.53.003c.116-.002.246 0 .337.079.076.05.11.134.146.211.309.64.549 1.31.724 1.995.187.735.289 1.494.244 2.25-.026.376-.09.75-.204 1.11-.098.3-.238.588-.407.858-.153.244-.35.46-.563.657-.454.423-1.023.72-1.618.917a7.51 7.51 0 0 1-1.661.334c-.29.033-.58.035-.871.047-.002 3.351-.001 6.702 0 10.053h2.105c.097-.002.2.02.273.085.108.1.136.259.083.392-.023.013-.055.004-.08.007-1.863-.002-3.726 0-5.59-.002-.036-.108-.04-.235.03-.332.062-.107.195-.153.317-.149h2.114c.002-3.351.001-6.703 0-10.054-.774-.025-1.552-.11-2.296-.323-.595-.17-1.17-.428-1.653-.806a3.649 3.649 0 0 1-.71-.744 3.968 3.968 0 0 1-.423-.808c-.1-.27-.167-.552-.212-.835a5.703 5.703 0 0 1-.034-1.269c.034-.493.13-.98.259-1.457.186-.697.447-1.375.763-2.026A.358.358 0 0 1 8.75.049zm.393.6c-.205.505-.416 1.008-.566 1.53.42.156.867.248 1.316.283.792.056 1.604.006 2.358-.244.685-.232 1.353-.527 2.076-.634.407-.069.82-.086 1.232-.084.476.004.955.043 1.419.152.31.068.61.172.903.286-.136-.44-.303-.87-.497-1.29h-5.246C11.14.65 10.141.645 9.143.65zm4.496 1.805c-.675.232-1.338.519-2.053.623a7.239 7.239 0 0 1-1.196.083 6.576 6.576 0 0 1-1.36-.132 4.438 4.438 0 0 1-.631-.171c-.08.374-.126.754-.134 1.136-.017.631.078 1.28.376 1.85.154.289.341.567.589.792.418.405.958.678 1.52.854.825.258 1.7.329 2.565.327.852 0 1.715-.066 2.531-.315.525-.162 1.033-.405 1.435-.771a2.51 2.51 0 0 0 .543-.66c.344-.585.464-1.27.448-1.935a6.655 6.655 0 0 0-.168-1.379 11.162 11.162 0 0 0-1.013-.364 5.238 5.238 0 0 0-1.117-.197c-.785-.053-1.59.006-2.335.26z" transform="translate(7.5 7.5)"/>
        <path fill="url(#b)" d="M2.123 4.72c.248-.049.51.063.66.253.052.061.079.136.11.209L3.39 6.36c.06.14.071.297.027.442a.616.616 0 0 1-.375.4c-.444.174-.889.345-1.333.517a.703.703 0 0 1-.58-.075.739.739 0 0 1-.255-.286L.393 6.25c-.036-.084-.078-.166-.097-.255a.625.625 0 0 1 .14-.55.698.698 0 0 1 .307-.196l1.18-.458c.066-.024.13-.056.2-.07zM.975 5.88c.175.397.355.793.532 1.19l1.242-.51c-.178-.397-.352-.794-.534-1.189-.412.172-.826.34-1.24.509z" transform="translate(7.5 7.5)"/>
        <path fill="url(#a)" d="M4.51 7.18a.65.65 0 0 1 .536.113c.277.269.558.534.836.8.105.106.23.198.3.33a.65.65 0 0 1 .04.601c-.046.108-.134.19-.219.27-.323.31-.652.617-.97.931a.684.684 0 0 1-.414.139.712.712 0 0 1-.415-.173l-.856-.818c-.09-.09-.193-.17-.256-.281a.65.65 0 0 1-.026-.656c.062-.112.166-.192.256-.282l.847-.81a.763.763 0 0 1 .341-.165zm-.442 1.245c-.118.117-.245.225-.356.347.32.302.637.61.957.913l.958-.917-.959-.917-.6.574zM1.937 9.66a.876.876 0 0 1 .492.08c.18.092.293.274.323.463l.209 1.334c.012.206-.05.428-.213.57a.741.741 0 0 1-.384.164l-1.362.195a.755.755 0 0 1-.567-.166.637.637 0 0 1-.208-.385l-.205-1.307c-.062-.321.166-.685.511-.745.468-.069.936-.134 1.404-.203zm-1.211.84l.177 1.29c.45-.055.899-.113 1.348-.168-.055-.43-.117-.861-.176-1.292l-1.35.17z" transform="translate(7.5 7.5)"/>
    </g>
</svg>
