<svg xmlns="http://www.w3.org/2000/svg" width="20" height="20" viewBox="0 0 20 20">
    <path fill="#231F20" fill-rule="nonzero" d="M4.082 1.084A8.096 8.096 0 0 1 8.656.017 8.09 8.09 0 0 1 13.1 1.695a8.172 8.172 0 0 1 2.633 3.531 8.138 8.138 0 0 1-1.183 7.911c.333.375.706.713 1.055 1.073l3.864 3.865c.197.195.42.392.492.671a.988.988 0 0 1-.534 1.163.997.997 0 0 1-1.135-.221c-1.608-1.606-3.213-3.214-4.819-4.82-.108-.11-.213-.224-.335-.318a8.138 8.138 0 0 1-3.092 1.494 8.143 8.143 0 0 1-4.336-.143 8.144 8.144 0 0 1-3.722-2.444A8.116 8.116 0 0 1 .872 4.475a8.167 8.167 0 0 1 3.21-3.39zm3.677.9A6.135 6.135 0 0 0 4.53 3.14a6.16 6.16 0 0 0 .1 10.062 6.14 6.14 0 0 0 4.024 1.075A6.144 6.144 0 0 0 11.915 13 6.161 6.161 0 0 0 7.76 1.985z"/>
</svg>
